<svg xmlns="http://www.w3.org/2000/svg" xmlns:xlink="http://www.w3.org/1999/xlink" x="0px" y="0px"
 viewBox="0 0 100 125" style="enable-background:new 0 0 100 125;" xml:space="preserve"><title>Artboard 32</title>
 <path d="M86.3,88.6l-13.9-28c-0.2-0.3-0.5-0.6-0.9-0.6H58l1-2.2c12.6-5,18.7-19.3,13.7-31.9S53.5,7.2,40.9,12.3S22.2,31.5,27.2,44.1 c2.5,6.3,7.5,11.2,13.7,13.7l1,2.2H28.5c-0.4,0-0.7,0.2-0.9,0.6l-13.9,28c-0.2,0.5,0,1.1,0.4,1.3c0.1,0.1,0.3,0.1,0.5,0.1h70.8 c0.6,0,1-0.4,1-1C86.4,88.8,86.4,88.7,86.3,88.6L86.3,88.6z M74.3,69H58.9l-1.1-7h13L74.3,69z M27.5,35c0-12.4,10.1-22.5,22.5-22.5 c12.4,0,22.5,10.1,22.5,22.5c0,9.4-5.8,17.7-14.5,21.1c-0.2,0.1-0.4,0.3-0.5,0.5L50,72.3l-7.4-15.7c-0.1-0.2-0.3-0.4-0.5-0.5 C33.3,52.8,27.5,44.4,27.5,35z M29.2,62h13l-1.1,7H25.7L29.2,62z M20.7,79h18.8l-1.4,9H16.2L20.7,79z M40.2,88l1.5-9.8 c0.1-0.5-0.3-1.1-0.8-1.1c-0.1,0-0.1,0-0.2,0h-19l3-6h17.3c0.5,0,0.9-0.4,1-0.8l0.9-6.1l5.2,11c0.2,0.5,0.8,0.7,1.3,0.5 c0.2-0.1,0.4-0.3,0.5-0.5l5.2-11l0.9,6.1c0.1,0.5,0.5,0.8,1,0.8h17.3l3,6h-19c-0.6,0-1,0.4-1,1c0,0.1,0,0.1,0,0.2l1.5,9.8H40.2z  M61.9,88l-1.4-9h18.8l4.5,9H61.9z" fill="rgb(202 138 4)">
 </path>
 <path d="M62,47V31.2l1.6,1.1c0.5,0.3,1.1,0.2,1.4-0.2c0.3-0.5,0.2-1.1-0.2-1.4L50.6,20.6c-0.3-0.2-0.8-0.2-1.2,0L45,23.8V23 c0-0.6-0.4-1-1-1h-5c-0.6,0-1,0.4-1,1v5.8l-2.4,1.8c-0.4,0.3-0.5,0.9-0.2,1.4c0.3,0.4,0.9,0.5,1.4,0.2l1.3-0.9V47c0,0.6,0.4,1,1,1 h22C61.6,48,62,47.6,62,47z M43,24c0,0,0,1.1,0,1.2l-3,2.2V24H43z M60,46H40V29.9l10-7.2l10,7.1C60,29.8,60,46,60,46z" fill="rgb(202 138 4)"></path>
 <path d="M53,33h-6c-0.6,0-1,0.4-1,1v6c0,0.6,0.4,1,1,1h6c0.6,0,1-0.4,1-1v-6C54,33.4,53.6,33,53,33z M52,39h-4v-4h4V39z" fill="rgb(202 138 4)">
</path></svg>