<svg xmlns="http://www.w3.org/2000/svg" xmlns:xlink="http://www.w3.org/1999/xlink" x="0px" y="0px" viewBox="0 0 70 87.5" style="enable-background:new 0 0 70 87.5;" xml:space="preserve"><g>	<path d="M60.6,2H21.8h-9.5c-2.1,0-3.8,1.7-3.8,3.8v3.9H6.6c-0.6,0-1,0.4-1,1s0.4,1,1,1h1.8v7.7H6.6c-0.6,0-1,0.4-1,1s0.4,1,1,1h1.8  v7.7H6.6c-0.6,0-1,0.4-1,1s0.4,1,1,1h1.8v7.7H6.6c-0.6,0-1,0.4-1,1s0.4,1,1,1h1.8v7.7H6.6c-0.6,0-1,0.4-1,1s0.4,1,1,1h1.8v7.7H6.6  c-0.6,0-1,0.4-1,1s0.4,1,1,1h1.8v3.9c0,2.1,1.7,3.8,3.8,3.8h9.5h38.8c2.1,0,3.8-1.7,3.8-3.8V5.8C64.4,3.7,62.7,2,60.6,2z M20.8,66  h-8.5c-1,0-1.8-0.8-1.8-1.8v-3.9h1.8c0.6,0,1-0.4,1-1s-0.4-1-1-1h-1.8v-7.7h1.8c0.6,0,1-0.4,1-1s-0.4-1-1-1h-1.8v-7.7h1.8  c0.6,0,1-0.4,1-1s-0.4-1-1-1h-1.8v-7.7h1.8c0.6,0,1-0.4,1-1s-0.4-1-1-1h-1.8v-7.7h1.8c0.6,0,1-0.4,1-1s-0.4-1-1-1h-1.8v-7.7h1.8  c0.6,0,1-0.4,1-1s-0.4-1-1-1h-1.8V5.8c0-1,0.8-1.8,1.8-1.8h8.5V66z M62.4,64.2c0,1-0.8,1.8-1.8,1.8H22.8V4h37.8  c1,0,1.8,0.8,1.8,1.8V64.2z" fill="rgb(202 138 4)"></path>	
<path d="M48.4,41.3c0.1,0,0.3,0,0.5,0c2.1,0,4.7-1.6,5.8-2.3c0.5-0.4,0.9-0.9,1-1.6c0.1-0.6-0.1-1.3-0.5-1.8L50.8,30  c-0.8-1-2.1-1.2-3.2-0.5c-1.1,0.7-1.5,0.8-1.4,0.8c-2.7-0.3-7.5-6.5-7.2-9.2c0-0.1,0.3-0.4,1.1-1.2c0.9-0.8,1-2.2,0.3-3.2l-4.3-5.6  c-0.4-0.5-1-0.9-1.7-0.9c-0.6-0.1-1.3,0.1-1.8,0.6c-1.1,0.9-3.5,3.3-3.8,5.4c-0.6,4.5,2.9,10.8,6.3,15.3S43.9,40.7,48.4,41.3z   M30.9,16.3c0.1-0.8,1.1-2.4,3.1-4.2c0.1-0.1,0.2-0.1,0.2-0.1c0,0,0,0,0,0c0.1,0,0.2,0,0.3,0.1l4.3,5.6c0.1,0.2,0.1,0.4,0,0.5  c-1.4,1.3-1.7,1.9-1.7,2.4c0,0,0,0,0,0c-0.3,2.7,2.1,6,2.8,7c0.8,1,3.4,4.2,6.1,4.5c0.5,0.1,1.1,0,2.8-1.1c0.2-0.1,0.4-0.1,0.5,0.1  l4.3,5.6c0.1,0.1,0.1,0.2,0.1,0.3c0,0.1,0,0.2-0.2,0.2c-2.2,1.5-4.1,2.1-4.8,2c-3.2-0.4-7.9-4-11.9-9.2  C32.8,24.9,30.5,19.5,30.9,16.3z" fill="rgb(202 138 4)"></path>	
<path d="M56.3,48.4h-28c-0.6,0-1,0.4-1,1s0.4,1,1,1h28c0.6,0,1-0.4,1-1S56.8,48.4,56.3,48.4z" fill="rgb(202 138 4)"></path>	<path d="M56.3,55.9h-28c-0.6,0-1,0.4-1,1s0.4,1,1,1h28c0.6,0,1-0.4,1-1S56.8,55.9,56.3,55.9z" fill="rgb(202 138 4)"></path></g></svg>