<svg xmlns="http://www.w3.org/2000/svg" xmlns:xlink="http://www.w3.org/1999/xlink" x="0px" y="0px" viewBox="0 0 96 120" style="enable-background:new 0 0 96 120;" xml:space="preserve"><title>Artboard 37</title><path d="M72.2,2.6H23.8c-0.7,0-1.2,0.5-1.2,1.2c0,0,0,0,0,0v8.6c0,0.7,0.5,1.2,1.2,1.2l0,0h1.7V23c0,5.6,2.3,10.9,6.3,14.8l7.2,6.9 c1.4,1.3,1.4,3.5,0.1,4.8c0,0-0.1,0.1-0.1,0.1l-7.2,6.9c-4,3.9-6.3,9.2-6.3,14.8V82c0,0.2,0,0.3,0.1,0.5h-1.8 c-0.7,0-1.2,0.5-1.2,1.2v8.6c0,0.7,0.5,1.2,1.2,1.2h48.4c0.7,0,1.2-0.5,1.2-1.2v-8.6c0-0.7-0.5-1.2-1.2-1.2h-1.8 c0.1-0.1,0.1-0.3,0.1-0.5V71.3c0-5.6-2.3-10.9-6.3-14.8l-7.2-6.9c-1.4-1.3-1.4-3.5-0.1-4.8c0,0,0.1-0.1,0.1-0.1l7.2-6.9 c4-3.9,6.3-9.2,6.3-14.8v-9.4h1.7c0.7,0,1.2-0.5,1.2-1.2V3.8C73.4,3.1,72.8,2.6,72.2,2.6C72.2,2.6,72.2,2.6,72.2,2.6z M71,84.8V91 H25v-6.2H71z M36.3,82.4L48,69.4l11.8,13.1H36.3z M62.6,36.1L55.4,43c-2.3,2.2-2.4,5.9-0.2,8.2c0.1,0.1,0.1,0.1,0.2,0.2l7.2,6.9 c3.5,3.4,5.5,8.1,5.6,13.1V82c0,0.2,0,0.3,0.1,0.5H63L48.9,66.8c-0.5-0.5-1.3-0.5-1.8,0c0,0,0,0,0,0L33,82.4h-5.2 c0.1-0.1,0.1-0.3,0.1-0.5V71.3c0-4.9,2-9.6,5.6-13.1l7.2-6.9c2.3-2.2,2.4-5.9,0.2-8.2c-0.1-0.1-0.1-0.1-0.2-0.2l-7.2-6.9 c-3.2-3.1-5.2-7.4-5.5-11.9h40.1C67.8,28.7,65.8,32.9,62.6,36.1z M68.1,21.8H27.9v-8.3h40.2V21.8z M71,11.2H25V5h46V11.2z" fill="rgb(202 138 4)"></path></svg>